Coordinates
version=1
nRows=60
nColumns=12
inDegrees=yes

Units are S.I. units (second, meters, Newtons, ...)
Angles are in degrees

endheader
time	SC_y	SC_z	SC_x	AC_y	AC_z	AC_x	GH_y	GH_z	GH_yy	EL_x	PS_y
       0.0              -16.24          25.12          59.93           31.4         -11.67          1.297          29.76          80.92          116.4          70.12          56.42
   0.03692              -16.24          25.12          59.93           31.4         -11.66          1.294          29.74          80.91          116.4          70.12          56.42
   0.07384              -16.24          25.12          59.93          31.41         -11.66          1.291          29.72           80.9          116.4          70.11          56.43
    0.1108              -16.24          25.12          59.92          31.41         -11.66          1.288           29.7          80.89          116.3          70.11          56.44
    0.1477              -16.24          25.12          59.92          31.41         -11.66          1.284          29.68          80.88          116.3           70.1          56.45
    0.1846              -16.24          25.12          59.92          31.42         -11.66          1.281          29.66          80.87          116.3          70.09          56.46
    0.2215              -16.24          25.12          59.92          31.42         -11.66          1.277          29.63          80.86          116.2          70.09          56.47
    0.2584              -16.25          25.12          59.92          31.43         -11.66          1.272          29.61          80.85          116.2          70.08          56.48
    0.2954              -16.25          25.12          59.92          31.43         -11.65          1.268          29.58          80.84          116.2          70.07          56.49
    0.3323              -16.25          25.12          59.91          31.44         -11.65          1.263          29.55          80.83          116.1          70.06           56.5
    0.3692              -16.25          25.11          59.91          31.45         -11.65          1.258          29.52          80.81          116.1          70.06          56.52
    0.4061              -16.25          25.11          59.91          31.45         -11.65          1.252          29.48           80.8          116.0          70.05          56.53
     0.443              -16.26          25.11          59.91          31.46         -11.64          1.246          29.44          80.78          116.0          70.04          56.55
      0.48              -16.26          25.11           59.9          31.47         -11.64          1.239           29.4          80.76          115.9          70.03          56.57
    0.5169              -16.26          25.11           59.9          31.48         -11.64          1.232          29.36          80.74          115.9          70.01          56.58
    0.5538              -16.26          25.11           59.9          31.49         -11.64          1.225          29.31          80.72          115.8           70.0           56.6
    0.5907              -16.27           25.1          59.89           31.5         -11.63          1.216          29.26           80.7          115.7          69.99          56.63
    0.6276              -16.27           25.1          59.89          31.51         -11.63          1.207           29.2          80.67          115.7          69.97          56.65
    0.6646              -16.28           25.1          59.88          31.52         -11.62          1.197          29.14          80.65          115.6          69.96          56.68
    0.7015              -16.28           25.1          59.88          31.54         -11.62          1.186          29.07          80.62          115.5          69.94           56.7
    0.7384              -16.28          25.09          59.87          31.55         -11.61          1.174           29.0          80.59          115.4          69.92          56.73
    0.7753              -16.29          25.09          59.87          31.57         -11.61          1.161          28.91          80.55          115.3           69.9          56.77
    0.8122               -16.3          25.08          59.86          31.59          -11.6          1.146          28.82          80.51          115.2          69.87          56.81
    0.8492               -16.3          25.08          59.85          31.61         -11.59           1.13          28.72          80.47          115.0          69.85          56.85
    0.8861              -16.31          25.08          59.85          31.63         -11.59          1.112          28.61          80.42          114.9          69.82           56.9
     0.923              -16.32          25.07          59.84          31.65         -11.58          1.092          28.48          80.36          114.7          69.79          56.95
    0.9599              -16.33          25.06          59.83          31.68         -11.57           1.07          28.34           80.3          114.5          69.75          57.01
    0.9968              -16.34          25.06          59.82          31.71         -11.56          1.045          28.19          80.24          114.3          69.71          57.07
     1.034              -16.35          25.05           59.8          31.75         -11.55          1.016          28.01          80.16          114.1          69.66          57.15
     1.071              -16.36          25.04          59.79          31.79         -11.53         0.9839          27.81          80.07          113.8          69.61          57.23
     1.108              -16.37          25.03          59.77          31.83         -11.52         0.9469          27.58          79.97          113.5          69.55          57.33
     1.145              -16.39          25.02          59.75          31.89          -11.5         0.9045          27.31          79.86          113.1          69.48          57.44
     1.181              -16.41          25.01          59.73          31.95         -11.48         0.8556          27.01          79.72          112.7           69.4          57.56
     1.218              -16.43          24.99           59.7          32.02         -11.45         0.7987          26.65          79.57          112.3          69.31          57.71
     1.255              -16.46          24.98          59.67           32.1         -11.42         0.7322          26.24          79.39          111.7           69.2          57.88
     1.292              -16.49          24.96          59.64           32.2         -11.39         0.6537          25.75          79.18          111.1          69.07          58.09
     1.329              -16.53          24.93           59.6          32.31         -11.35         0.5605          25.16          78.93          110.3          68.92          58.33
     1.366              -16.57           24.9          59.55          32.45          -11.3         0.4487          24.47          78.62          109.3          68.74          58.62
     1.403              -16.62          24.87          59.49          32.62         -11.24         0.3136          23.62          78.26          108.2          68.52          58.97
      1.44              -16.69          24.82          59.41          32.83         -11.17         0.1484          22.59          77.81          106.8          68.25           59.4
     1.477              -16.77          24.77          59.32          33.08         -11.09       -0.05541          21.32          77.26          105.1          67.92          59.93
     1.514              -16.87          24.71           59.2           33.4         -10.98        -0.3096          19.73          76.57          103.0           67.5          60.59
     1.551               -17.0          24.62          59.06          33.79         -10.84        -0.6298          17.74          75.71          100.3          66.98          61.42
     1.588              -17.16          24.52          58.88           34.3         -10.66         -1.037           15.2          74.61          96.95          66.32          62.48
     1.624              -17.36          24.38          58.64          34.95         -10.44         -1.558          11.94           73.2           92.6          65.47          63.83
     1.661              -17.63          24.21          58.34          35.78         -10.15         -2.226          7.771          71.39          87.03          64.38          65.57
     1.698              -17.97          23.98          57.95          36.84         -9.786          -3.08          2.441          69.08           79.9          62.99          67.79
     1.735              -18.39           23.7          57.47          38.18         -9.324         -4.154         -4.261          66.17          70.94          61.24          70.58
     1.772              -18.91          23.36          56.88           39.8         -8.762         -5.463         -12.43          62.63          60.03          59.11          73.98
     1.809              -19.51          22.97           56.2          41.69          -8.11         -6.979         -21.89          58.53          47.37          56.63          77.92
     1.846              -20.16          22.54          55.46          43.73         -7.405         -8.622         -32.15          54.09          33.67          53.96          82.19
     1.883              -20.81          22.11          54.71          45.78         -6.699         -10.26          -42.4          49.65          19.97          51.28          86.45
      1.92              -21.41          21.72          54.03          47.66         -6.048         -11.78         -51.86          45.54          7.319          48.81           90.4
     1.957              -21.93          21.38          53.44          49.29         -5.486         -13.09         -60.03          42.01         -3.597          46.68           93.8
     1.994              -22.35           21.1          52.96          50.62         -5.024         -14.16         -66.73           39.1         -12.55          44.93          96.59
     2.031              -22.69          20.87          52.57          51.69         -4.657         -15.02         -72.06          36.79         -19.68          43.54           98.8
     2.068              -22.95           20.7          52.27          52.52          -4.37         -15.69         -76.23          34.98         -25.26          42.45          100.5
     2.104              -23.16          20.57          52.03          53.17         -4.146         -16.21         -79.49          33.57          -29.6           41.6          101.9
     2.141              -23.32          20.46          51.85          53.67         -3.971         -16.61         -82.03          32.47          -33.0          40.93          103.0
     2.178              -23.45          20.38          51.71          54.07         -3.834         -16.93         -84.03          31.61         -35.67          40.41          103.8
